<svg t="1737638143488" class="icon" viewBox="0 0 1025 1024" version="1.1" xmlns="http://www.w3.org/2000/svg" p-id="14166" id="mx_n_1737638143489" width="200" height="200"><path d="M745.048276 946.317241H280.717241C125.351724 946.317241 1.765517 822.731034 1.765517 667.365517V356.634483c0-155.365517 123.586207-278.951724 278.951724-278.951724h466.096552c155.365517 0 278.951724 123.586207 278.951724 278.951724v310.731034c0 155.365517-125.351724 278.951724-280.717241 278.951724zM280.717241 109.462069c-137.710345 0-248.937931 111.227586-248.937931 247.172414v310.731034c0 135.944828 111.227586 248.937931 248.937931 248.937931h466.096552c135.944828 0 248.937931-111.227586 248.937931-248.937931V356.634483c0-135.944828-111.227586-248.937931-248.937931-248.937931-1.765517 1.765517-466.096552 1.765517-466.096552 1.765517z" fill="#19042D" p-id="14167"></path><path d="M536.717241 201.268966H261.296552c-7.062069 0-12.358621 5.296552-12.358621 12.35862v275.42069c0 7.062069 5.296552 12.358621 12.358621 12.358621h275.420689c7.062069 0 12.358621-5.296552 12.358621-12.358621V213.627586c0-7.062069-5.296552-12.358621-12.358621-12.35862z m-74.151724 211.862068c8.827586 0 15.889655 7.062069 15.889655 15.889656s-7.062069 15.889655-15.889655 15.889655c-21.186207 0-44.137931-5.296552-61.793103-15.889655-19.42069 10.593103-42.372414 17.655172-67.089655 15.889655-8.827586 0-15.889655-7.062069-15.889656-15.889655s7.062069-15.889655 15.889656-15.889656c14.124138 0 26.482759-1.765517 40.606896-7.062068-10.593103-12.358621-19.42069-26.482759-24.717241-40.606897-3.531034-8.827586 1.765517-15.889655 8.827586-19.42069 8.827586-3.531034 15.889655 1.765517 19.42069 8.827587 3.531034 12.358621 10.593103 24.717241 21.186207 35.310344 12.358621-15.889655 21.186207-33.544828 22.951724-54.731034H335.448276c-8.827586 0-15.889655-7.062069-15.889655-15.889655s7.062069-15.889655 15.889655-15.889655h49.434483v-28.248276c0-8.827586 7.062069-15.889655 15.889655-15.889656s15.889655 7.062069 15.889655 15.889656v26.482758h49.434483c8.827586 0 15.889655 7.062069 15.889655 15.889655s-7.062069 15.889655-15.889655 15.889656h-8.827586c-1.765517 26.482759-12.358621 51.2-28.248276 72.386207 8.827586 3.531034 21.186207 7.062069 33.544827 7.062068zM704.441379 745.048276l-21.186207-51.2-40.606896-104.165517c0-1.765517-1.765517-1.765517-1.765517-1.765518s0-1.765517-1.765518-1.765517l-1.765517-1.765517-1.765517-1.765517v-1.765518s-1.765517 0-1.765517-1.765517c-1.765517 0-1.765517-1.765517-1.765518-1.765517h-10.593103c-1.765517 0-1.765517 0-1.765517 1.765517H617.931034c-1.765517 0-1.765517 1.765517-1.765517 1.765517h1.765517c-1.765517 0-1.765517 1.765517-1.765517 1.765518s-1.765517 0-1.765517 1.765517l-1.765517 1.765517-1.765517 1.765517s0 1.765517-1.765518 1.765518c0 1.765517-1.765517 1.765517-1.765517 1.765517l-40.606897 104.165517-21.186206 51.2c-3.531034 8.827586 1.765517 15.889655 8.827586 19.42069 8.827586 3.531034 15.889655-1.765517 19.420689-8.827586l15.889656-42.372414h61.793103l15.889655 42.372414c3.531034 8.827586 12.358621 10.593103 21.186207 8.827586 12.358621-5.296552 17.655172-14.124138 15.889655-21.186207z m-95.337931-61.793104l19.42069-45.903448 19.42069 45.903448h-38.84138zM596.744828 284.248276c1.765517-8.827586 10.593103-12.358621 19.420689-10.593104 5.296552 1.765517 114.758621 37.075862 114.758621 190.675862v7.062069s0 1.765517-1.765517 1.765518c0 0 0 1.765517-1.765518 1.765517l-1.765517 1.765517c0 1.765517-1.765517 1.765517-1.765517 1.765517l-1.765517 1.765518c-1.765517 0-1.765517 1.765517-1.765518 1.765517s-1.765517 0-1.765517 1.765517c-1.765517 0-1.765517 1.765517-1.765517 1.765517H711.503448c-1.765517 0-3.531034 0-3.531034-1.765517H706.206897c-1.765517-1.765517-3.531034-1.765517-3.531035-1.765517L651.475862 441.37931c-7.062069-5.296552-8.827586-14.124138-3.531034-21.186207s14.124138-8.827586 21.186206-3.531034l24.717242 19.42069c-15.889655-98.868966-90.041379-123.586207-91.806897-125.351725-3.531034-8.827586-8.827586-17.655172-5.296551-26.482758zM429.02069 739.751724c-1.765517 8.827586-10.593103 12.358621-19.42069 10.593104-5.296552-1.765517-114.758621-37.075862-114.758621-190.675862v-1.765518V552.606897s0-1.765517 1.765518-1.765518c0 0 0-1.765517 1.765517-1.765517l1.765517-1.765517 1.765517-1.765517 1.765518-1.765518-3.531035 3.531035 1.765517-1.765517s1.765517 0 1.765518-1.765518 1.765517 0 1.765517-1.765517 1.765517 0 1.765517 0h12.358621s1.765517 0 1.765517 1.765517c0 0 1.765517 0 1.765517 1.765518l-5.296552 1.765517 51.2 40.606896c7.062069 5.296552 8.827586 14.124138 3.531035 21.186207-5.296552 7.062069-14.124138 8.827586-21.186207 3.531035l-24.717241-19.42069c15.889655 100.634483 90.041379 125.351724 91.806896 127.117241 8.827586 1.765517 14.124138 10.593103 10.593104 19.42069z" p-id="14168"></path><path d="M746.813793 552.606897v238.344827H508.468966V552.606897h238.344827m17.655173-30.013794H489.048276c-7.062069 0-12.358621 5.296552-12.358621 12.358621v275.42069c0 7.062069 5.296552 12.358621 12.358621 12.35862h275.42069c7.062069 0 12.358621-5.296552 12.35862-12.35862V534.951724c0-7.062069-5.296552-12.358621-12.35862-12.358621z" p-id="14169"></path></svg>