<svg t="1737384280246" class="icon" viewBox="0 0 1024 1024" version="1.1" xmlns="http://www.w3.org/2000/svg" p-id="1726" width="200" height="200"><path d="M512.597333 85.290667c-235.648 0-426.666667 191.018667-426.666666 426.666666 0 54.272 11.178667 109.269333 30.72 158.677334l33.28 67.968c21.12 43.904 13.696 85.290667-14.677334 136.021333a41.984 41.984 0 0 0 36.010667 62.677333c43.392 0.981333 112.810667-16.853333 168.021333-37.333333 50.901333 23.509333 116.48 38.656 173.312 38.656 235.648 0 426.666667-191.018667 426.666667-426.666667s-191.018667-426.666667-426.666667-426.666666z m-170.666666 384a42.666667 42.666667 0 1 1 0 85.333333 42.666667 42.666667 0 0 1 0-85.333333z m170.666666 0a42.666667 42.666667 0 1 1 0 85.333333 42.666667 42.666667 0 0 1 0-85.333333z m170.666667 0a42.666667 42.666667 0 1 1 0 85.333333 42.666667 42.666667 0 0 1 0-85.333333z" p-id="1727"></path></svg>